# xmcd CD database file
#
# Track frame offsets:
#	150
#	13676
#	29973
#	39185
#	55857
#	76473
#	96902
#	113960
#	128320
#	142398
#	163073
#
# Disc length: 2304 seconds
#
# Revision: 0
# Processed by: cddbd v1.5.2PL0 Copyright (c) Steve Scherf et al.
# Submitted via: CDex 1.51
#
DISCID=9408fe0b
DTITLE=Jason Boland and The Stragglers - Squelch
DYEAR=2015
DGENRE=Country
TTITLE0=Break 19
TTITLE1=The First To Know
TTITLE2=I Guess It's Alright To Be An Asshole
TTITLE3=Holy Relic Sale
TTITLE4=Heartland Bypass
TTITLE5=Lose Early
TTITLE6=Do You Love Me Any Less
TTITLE7=Fat and Merry
TTITLE8=Christmas In Huntsville
TTITLE9=Bienville
TTITLE10=Fuck, Fight, and Rodeo
EXTD=YEAR: 2015
EXTT0=
EXTT1=
EXTT2=
EXTT3=
EXTT4=
EXTT5=
EXTT6=
EXTT7=
EXTT8=
EXTT9=
EXTT10=
PLAYORDER=
